<?xml version="1.0" standalone="no"?>
<!DOCTYPE svg PUBLIC "-//W3C//DTD SVG 20010904//EN"
 "http://www.w3.org/TR/2001/REC-SVG-20010904/DTD/svg10.dtd">
<svg version="1.0" xmlns="http://www.w3.org/2000/svg"
 width="696.000000pt" height="696.000000pt" viewBox="0 0 696.000000 696.000000"
 preserveAspectRatio="xMidYMid meet">
<metadata>
Created by potrace 1.14, written by Peter Selinger 2001-2017
</metadata>
<g transform="translate(0.000000,696.000000) scale(0.100000,-0.100000)"
fill="#000000" stroke="none">
<path d="M1009 6956 c-4 -4 -19 -7 -94 -21 -45 -8 -195 -76 -195 -87 0 -5 -6
-8 -13 -8 -7 0 -26 -10 -42 -22 -28 -22 -139 -132 -160 -160 -21 -27 -45 -68
-44 -74 0 -4 -3 -10 -8 -13 -11 -7 -51 -99 -72 -166 -13 -44 -16 -189 -18
-1208 l-4 -1158 68 37 c37 20 75 43 84 51 8 7 19 13 22 13 4 0 36 18 72 40 36
22 67 40 70 40 3 0 34 18 70 40 36 22 68 40 71 40 3 0 28 15 57 33 29 18 68
41 87 50 19 10 49 26 65 37 17 10 66 39 110 65 44 25 105 59 135 77 30 17 58
35 61 40 3 6 8 8 10 6 2 -1 40 18 84 44 44 25 149 86 234 135 84 48 153 93
152 98 -1 6 -90 60 -196 120 -107 61 -194 114 -194 118 -1 5 8 11 19 14 11 3
20 8 20 12 0 4 22 18 50 32 27 13 50 27 50 32 0 4 4 7 10 7 5 0 31 13 58 29
49 28 69 40 222 127 47 26 87 51 90 54 3 3 20 12 38 19 17 8 32 17 32 22 0 5
4 9 10 9 5 0 80 41 166 90 85 50 159 90 165 90 5 0 9 5 9 10 0 6 4 10 9 10 8
0 152 81 346 195 50 29 106 61 125 72 19 11 52 30 74 43 l38 23 -33 18 c-19
10 -41 21 -49 25 -8 4 -26 15 -40 24 -14 10 -41 26 -60 36 -86 47 -315 179
-320 184 -3 4 -20 13 -37 21 -18 8 -33 17 -33 21 0 5 -4 8 -10 8 -5 0 -44 20
-86 45 -41 25 -77 45 -79 45 -1 0 -63 36 -138 79 -74 43 -154 90 -178 104 -24
13 -60 34 -79 46 -19 11 -46 27 -60 34 -14 6 -59 32 -100 57 -127 76 -153 90
-225 125 -100 48 -185 68 -306 71 -59 2 -108 2 -110 0z"/>
<path d="M3945 5420 c-3 -6 -23 -18 -43 -28 -35 -17 -135 -75 -537 -307 -88
-51 -176 -102 -195 -112 -19 -11 -96 -55 -170 -98 -273 -158 -303 -175 -311
-175 -5 0 -9 -4 -9 -8 0 -4 -12 -13 -27 -20 -30 -13 -47 -23 -157 -89 l-69
-42 -56 31 c-31 17 -76 42 -101 56 -25 14 -49 28 -55 32 -5 4 -28 18 -50 30
-22 13 -59 34 -83 47 l-42 24 -161 -93 c-88 -51 -181 -104 -207 -118 -26 -13
-49 -27 -52 -30 -3 -3 -88 -53 -190 -112 -102 -58 -201 -115 -220 -127 -19
-11 -60 -34 -90 -51 -30 -16 -75 -42 -100 -56 -25 -15 -58 -35 -75 -44 -16 -9
-54 -31 -83 -49 -29 -17 -55 -31 -58 -31 -3 0 -18 -8 -32 -19 -15 -10 -47 -29
-72 -43 -25 -14 -63 -36 -85 -48 -22 -13 -51 -30 -65 -37 -14 -8 -47 -28 -75
-44 -27 -16 -65 -37 -82 -46 l-33 -17 0 -1048 c0 -576 3 -1048 6 -1048 3 0 43
22 90 50 47 28 89 50 94 50 6 0 10 3 10 8 0 4 19 16 43 27 23 11 44 22 47 26
3 3 30 19 60 36 30 16 74 42 97 56 24 15 45 27 48 27 3 0 38 20 78 44 39 23
101 60 137 80 36 20 72 41 80 46 8 5 69 41 135 78 369 212 674 387 774 445 62
37 115 67 116 67 2 0 49 27 105 60 56 33 106 60 111 60 5 0 9 5 9 10 0 6 4 10
9 10 8 0 140 74 299 167 150 88 214 123 222 123 6 0 10 5 10 10 0 6 4 10 9 10
5 0 59 29 120 65 60 36 114 65 120 65 6 0 11 5 11 10 0 6 5 10 10 10 6 0 40
18 76 40 36 22 67 40 69 40 2 0 39 21 82 46 43 26 96 57 118 69 22 12 82 46
133 76 51 30 105 61 120 69 15 9 47 27 71 42 l44 26 -34 17 c-32 17 -57 30
-189 102 -30 17 -86 47 -125 68 -38 21 -73 41 -77 44 -4 4 16 19 45 35 93 50
221 119 272 147 28 16 68 37 90 48 22 11 72 38 110 60 39 22 95 52 125 68 30
15 57 30 60 33 3 3 37 22 75 42 39 21 104 56 145 77 41 22 120 65 175 96 55
30 120 65 145 77 25 13 47 25 50 28 3 3 32 19 65 37 163 85 167 87 148 101
-10 7 -82 49 -161 95 -79 45 -169 97 -201 115 -31 18 -65 37 -76 42 -11 6 -38
22 -60 35 -22 14 -47 28 -55 32 -8 3 -34 19 -57 35 -23 15 -44 28 -48 28 -3 0
-44 23 -91 50 -47 28 -89 50 -94 50 -6 0 -10 5 -10 10 0 6 -4 10 -10 10 -5 0
-33 14 -62 31 -126 75 -124 74 -133 59z"/>
<path d="M5965 4163 c-55 -29 -116 -62 -135 -71 -19 -9 -40 -22 -47 -28 -6 -6
-26 -17 -45 -24 -18 -8 -35 -16 -38 -19 -3 -3 -36 -22 -75 -41 -38 -19 -72
-38 -75 -41 -3 -3 -18 -12 -35 -20 -45 -23 -208 -111 -220 -119 -5 -4 -55 -31
-110 -60 -55 -29 -131 -70 -168 -92 -38 -21 -71 -38 -73 -38 -2 0 -22 -11 -44
-25 -22 -14 -46 -25 -54 -25 -8 0 -16 -4 -18 -8 -2 -7 -105 -65 -237 -134 -34
-17 -35 -17 -85 11 -28 15 -87 48 -131 71 -44 24 -105 57 -135 73 -30 17 -65
36 -78 43 -20 10 -36 4 -150 -62 -70 -40 -140 -82 -157 -92 -16 -11 -55 -32
-85 -48 -30 -16 -57 -31 -60 -34 -11 -11 -170 -100 -180 -100 -5 0 -10 -4 -10
-10 0 -5 -4 -10 -10 -10 -5 0 -47 -22 -92 -49 -46 -27 -100 -58 -120 -70 -21
-11 -53 -30 -72 -40 -18 -11 -44 -25 -57 -33 -13 -7 -26 -15 -29 -18 -3 -3
-20 -13 -38 -22 -17 -10 -47 -26 -64 -35 -18 -10 -35 -21 -38 -24 -3 -4 -15
-9 -27 -13 -13 -4 -23 -12 -23 -17 0 -5 -4 -9 -10 -9 -8 0 -184 -99 -305 -171
-16 -10 -46 -26 -65 -37 -52 -29 -93 -52 -230 -132 -69 -40 -143 -83 -165 -96
-22 -12 -107 -61 -189 -108 -82 -47 -153 -86 -158 -86 -4 0 -8 -4 -8 -9 0 -5
-8 -11 -18 -14 -9 -3 -39 -20 -67 -36 -27 -17 -59 -35 -70 -41 -11 -5 -42 -23
-70 -39 -27 -16 -61 -36 -75 -44 -29 -16 -42 -23 -265 -152 -93 -54 -222 -127
-285 -164 -63 -36 -117 -68 -120 -71 -3 -3 -16 -11 -30 -17 -14 -6 -122 -68
-240 -136 l-215 -125 -2 -399 c-1 -242 2 -417 9 -444 5 -24 12 -54 14 -65 2
-12 12 -39 21 -60 9 -22 17 -41 18 -44 2 -12 50 -97 69 -124 32 -45 127 -140
166 -166 19 -13 37 -27 40 -30 22 -23 197 -95 250 -102 14 -2 30 -6 35 -9 6
-3 53 -6 105 -7 170 -2 299 40 490 158 22 14 208 121 265 153 28 15 58 30 68
34 9 3 17 9 17 13 0 4 8 11 18 14 9 3 26 12 37 19 11 6 52 30 90 51 39 21 78
46 88 54 9 8 17 11 17 6 0 -5 4 -4 8 2 4 6 21 17 37 26 17 8 96 53 177 100 80
47 152 88 160 92 7 3 27 15 43 25 17 11 52 32 79 46 79 43 91 50 96 55 3 3 16
11 29 18 88 50 216 123 239 137 9 6 48 28 87 50 38 22 79 45 90 52 11 7 27 15
35 19 8 4 17 10 20 13 5 6 53 33 125 70 17 9 32 19 33 24 2 4 10 7 18 7 8 0
14 5 14 12 0 6 3 9 6 5 3 -3 29 9 58 26 84 52 89 55 141 83 28 14 62 35 77 45
14 11 28 19 31 19 2 0 81 44 174 98 94 55 177 102 184 106 8 3 32 17 54 31 22
14 49 30 60 35 21 11 34 18 197 113 53 32 102 57 107 57 6 0 11 4 11 9 0 5 8
12 18 15 9 3 26 12 37 19 11 7 71 42 133 77 63 36 135 78 160 93 26 15 58 33
72 40 14 6 27 14 30 17 3 3 19 12 35 21 17 9 71 40 120 69 50 29 106 62 125
72 19 11 91 52 160 91 69 39 131 77 138 84 7 7 17 13 22 13 5 0 44 20 86 45
41 25 80 45 85 45 5 0 9 5 9 10 0 6 4 10 9 10 12 0 430 242 486 281 111 77
201 197 260 344 38 96 54 272 34 382 -22 118 -89 271 -145 329 -6 7 -21 25
-35 40 -52 62 -132 120 -299 216 l-45 26 -100 -55z"/>
</g>
</svg>
